<?xml version="1.0" encoding="utf-8"?>
<svg xmlns="http://www.w3.org/2000/svg" viewBox="0 0 50 50" fill="#2b3432"><path d="M 24.642578 2.0039062 C 12.156578 2.1939062 2 12.731094 2 25.496094 L 2 42 C 2 45.309 4.692 48 8 48 L 24.503906 48 C 37.267906 48 47.806094 37.842422 47.996094 25.357422 C 48.091094 19.077422 45.700672 13.174328 41.263672 8.7363281 C 36.825672 4.2983281 30.909578 1.9359063 24.642578 2.0039062 z M 30.5 9 C 30.669 9 30.833 9.0173906 31 9.0253906 L 31 9 C 31.436 9 31.820641 9.0614375 32.181641 9.1484375 C 37.173641 9.9564375 41 14.284 41 19.5 C 41 25.29 36.29 30 30.5 30 L 27 30 L 27 33.5 C 27 39.29 22.29 44 16.5 44 C 16.331 44 16.167 43.982609 16 43.974609 L 16 44 C 15.565 44 15.179359 43.938562 14.818359 43.851562 C 9.8263594 43.043563 6 38.716 6 33.5 C 6 27.71 10.71 23 16.5 23 L 20 23 L 20 19.5 C 20 13.71 24.71 9 30.5 9 z M 30.5 11 C 25.813 11 22 14.813 22 19.5 L 22 25 L 18.5 25 C 17.673 25 17 25.673 17 26.5 C 17 27.327 17.673 28 18.5 28 L 21 28 C 21.553 28 22 28.447 22 29 L 22 33.5 C 22 36.532 19.532 39 16.5 39 C 16.458 39 16.417 38.995141 16.375 38.994141 L 16.375 39 L 15.5 39 C 14.617 39 14 39.565 14 40.375 C 14 40.995 14.335266 41.642625 15.197266 41.890625 C 15.623266 41.956625 16.056 42 16.5 42 C 21.187 42 25 38.187 25 33.5 L 25 28 L 29.5 28 C 30.327 28 31 27.327 31 26.5 C 31 25.673 30.327 25 29.5 25 L 26 25 C 25.447 25 25 24.553 25 24 L 25 19.5 C 25 16.468 27.468 14 30.5 14 C 30.542 14 30.583 14.004859 30.625 14.005859 L 30.625 14 L 31.5 14 C 32.383 14 33 13.435 33 12.625 C 33 12.005 32.664734 11.358375 31.802734 11.109375 C 31.376734 11.044375 30.944 11 30.5 11 z M 30.5 16 C 28.57 16 27 17.57 27 19.5 L 27 23 L 30.5 23 C 32.43 23 34 21.43 34 19.5 C 34 17.57 32.43 16 30.5 16 z M 16.5 30 C 14.57 30 13 31.57 13 33.5 C 13 35.43 14.57 37 16.5 37 C 18.43 37 20 35.43 20 33.5 L 20 30 L 16.5 30 z" fill="#2b3432"/></svg>
