<?xml version="1.0" encoding="UTF-8"?>
<svg xmlns="http://www.w3.org/2000/svg" xmlns:xlink="http://www.w3.org/1999/xlink" viewBox="0 0 50 50" version="1.1" fill="#2b3432"><g id="surface1" fill="#2b3432"><path style=" " d="M 24.9375 1.84375 C 23.050781 1.847656 21.164063 1.992188 19.96875 2.25 C 16.699219 2.953125 14.101563 4.003906 11.3125 5.8125 C 5.621094 9.503906 1.847656 15.035156 0.375 21.8125 C 0.09375 23.101563 0 24.378906 0 26.8125 C 0 29.957031 0.144531 31.050781 0.84375 33.625 L 1.03125 34.375 L 3.40625 34.4375 C 4.917969 34.4375 6.359375 34.160156 7.46875 33.65625 C 7.898438 33.460938 8.585938 33.316406 9 33.3125 C 9.675781 33.304688 9.847656 33.425781 10.8125 34.46875 C 11.714844 35.445313 12.015625 35.625 12.6875 35.71875 C 13.984375 35.894531 14.566406 35.097656 13.53125 34.5625 C 12.75 34.160156 11.21875 31.839844 11.21875 31.0625 C 11.21875 29.476563 12.507813 28.636719 13.875 29.09375 C 13.941406 29.136719 13.996094 29.175781 14.0625 29.21875 C 14.363281 29.40625 14.535156 29.699219 14.8125 30.28125 C 14.890625 30.449219 14.972656 30.605469 15.0625 30.78125 C 15.179688 31.007813 15.292969 31.222656 15.375 31.40625 C 15.628906 31.980469 15.964844 32.78125 16.84375 32.78125 C 17.136719 32.78125 17.488281 32.722656 17.78125 32.5625 C 17.980469 32.722656 18.320313 33.027344 18.875 33.59375 C 20.691406 35.453125 21.917969 36.15625 23.90625 36.15625 C 24.625 36.15625 25.460938 36.078125 26.4375 35.90625 C 28.070313 35.621094 28.078125 35.636719 28.59375 35.84375 C 29.582031 36.242188 29.929688 36.242188 30.96875 35.84375 C 31.515625 35.636719 31.574219 35.621094 32.0625 35.75 C 33.378906 36.105469 34.222656 36.105469 35.40625 35.6875 C 35.574219 35.628906 35.714844 35.585938 35.8125 35.5625 C 35.773438 35.714844 35.738281 35.863281 35.6875 36.03125 C 35.464844 36.792969 35.234375 37.832031 35.1875 38.34375 C 35.125 39.046875 34.898438 39.550781 34.28125 40.4375 C 32.550781 42.921875 31.0625 45.160156 31.0625 45.25 C 31.0625 45.371094 32.007813 45.144531 32.5 44.90625 C 32.710938 44.804688 33.441406 44.171875 34.125 43.5 C 35.023438 42.621094 35.675781 42.160156 36.5 41.84375 C 37.480469 41.464844 37.667969 41.324219 37.75 40.84375 C 37.828125 40.390625 37.980469 40.234375 38.59375 40.03125 C 39.96875 39.582031 42.121094 39.367188 43.75 39.59375 C 46.011719 39.90625 46.320313 40.171875 47.15625 38.59375 C 47.21875 38.488281 47.28125 38.351563 47.34375 38.21875 L 47.53125 37.84375 C 47.539063 37.828125 47.523438 37.828125 47.53125 37.8125 C 47.546875 37.777344 47.574219 37.722656 47.59375 37.6875 C 47.609375 37.65625 47.609375 37.625 47.625 37.59375 C 49.304688 34.054688 50 30.917969 50 26.8125 C 50 22.511719 49.269531 19.371094 47.40625 15.59375 C 44.042969 8.777344 37.660156 3.898438 29.875 2.21875 C 28.710938 1.96875 26.824219 1.839844 24.9375 1.84375 Z M 28.4375 7.75 C 28.488281 7.746094 28.515625 7.753906 28.5625 7.75 C 28.71875 7.742188 28.882813 7.75 29.03125 7.75 C 29.050781 7.75 29.074219 7.75 29.09375 7.75 C 29.308594 7.753906 29.515625 7.761719 29.71875 7.78125 C 29.734375 7.78125 29.734375 7.777344 29.75 7.78125 C 29.84375 7.792969 29.941406 7.796875 30.03125 7.8125 C 30.050781 7.816406 30.074219 7.808594 30.09375 7.8125 C 30.183594 7.828125 30.285156 7.855469 30.375 7.875 C 30.390625 7.878906 30.390625 7.871094 30.40625 7.875 C 30.5 7.894531 30.597656 7.914063 30.6875 7.9375 C 30.695313 7.941406 30.679688 7.964844 30.6875 7.96875 C 31.082031 8.078125 31.457031 8.214844 31.8125 8.40625 C 32.335938 8.691406 32.695313 8.933594 33.0625 9.375 C 33.277344 9.632813 33.480469 9.949219 33.75 10.375 C 34.304688 11.238281 34.917969 12.457031 35.46875 13.75 C 36.175781 15.414063 36.800781 17.203125 37.125 18.5625 C 37.0625 18.695313 37 18.84375 37 19 C 37 19.054688 37 19.132813 36.96875 19.21875 C 36.617188 19.375 36.34375 19.71875 36.34375 20.125 C 36.34375 20.179688 36.324219 20.410156 36.1875 20.78125 C 36.132813 20.9375 36.042969 21.09375 35.96875 21.25 C 35.9375 21.3125 35.9375 21.375 35.90625 21.4375 C 35.789063 21.660156 35.699219 21.878906 35.625 22.0625 C 35.488281 22.394531 35.394531 22.605469 35.375 22.6875 C 35.371094 22.699219 35.375 22.746094 35.375 22.75 C 35.371094 22.761719 35.378906 22.773438 35.375 22.78125 C 35.253906 23.304688 35.570313 23.828125 36.09375 23.96875 C 36.179688 23.992188 36.257813 24 36.34375 24 C 36.785156 24 37.195313 23.695313 37.3125 23.25 C 37.316406 23.246094 37.40625 22.84375 37.65625 22.375 C 37.8125 22.082031 37.953125 21.773438 38.0625 21.46875 C 38.097656 21.382813 38.171875 21.265625 38.25 21.125 C 38.371094 20.90625 38.5 20.640625 38.625 20.375 C 39.800781 20.648438 41.554688 21.199219 42.78125 22.1875 C 44.382813 23.476563 44.96875 25.136719 44.375 27.03125 C 44.289063 27.300781 44.195313 27.570313 44.0625 27.84375 C 43.035156 30.003906 40.804688 31.570313 37.625 32.40625 L 37 32.5625 C 36.5625 32.660156 36.09375 32.769531 35.625 32.84375 C 35.488281 32.863281 35.363281 32.855469 35.21875 32.875 C 34.660156 32.898438 33.941406 32.921875 33.09375 32.9375 C 33.070313 32.9375 33.027344 32.9375 33 32.9375 C 32.757813 32.941406 32.507813 32.964844 32.25 32.96875 C 32.121094 32.96875 31.976563 32.96875 31.84375 32.96875 C 31.683594 32.96875 31.539063 32.96875 31.375 32.96875 C 31.105469 32.96875 30.808594 32.972656 30.53125 32.96875 C 30.496094 32.96875 30.472656 32.96875 30.4375 32.96875 C 29.800781 32.960938 29.152344 32.933594 28.5 32.90625 C 28.230469 32.878906 27.9375 32.847656 27.6875 32.8125 C 24.21875 32.304688 20.324219 31.070313 16.75 29.4375 C 13.289063 27.859375 10.15625 25.898438 8.09375 23.9375 C 5.222656 21.210938 5.082031 19.082031 7.71875 17.8125 C 8.484375 17.441406 9.023438 17.382813 11.15625 17.3125 L 13.65625 17.21875 L 13.6875 17.21875 L 13.59375 17.90625 L 13.5625 18.15625 C 13.507813 18.597656 13.527344 18.964844 13.625 19.3125 C 13.785156 19.871094 14.164063 20.355469 14.84375 20.9375 C 17.382813 23.113281 27.25 26.195313 27.25 24.8125 C 27.25 24.738281 27.175781 24.617188 27.09375 24.5 C 27.03125 24.414063 26.957031 24.324219 26.875 24.25 C 26.542969 23.949219 26.265625 23.367188 25.71875 21.90625 C 25.65625 21.746094 25.550781 21.5625 25.4375 21.40625 C 25.316406 21.238281 25.183594 21.078125 25.0625 21 C 24.570313 20.675781 22.792969 20.160156 20.1875 19.5625 C 18.007813 19.0625 15.804688 18.058594 15.125 17.25 C 14.460938 16.460938 14.484375 15.535156 15.21875 12.5 C 15.609375 10.886719 15.90625 9.988281 16.28125 9.40625 C 16.558594 8.976563 16.878906 8.707031 17.34375 8.46875 C 18.203125 8.03125 17.992188 8.027344 23.1875 8.40625 C 24.464844 8.5 25.09375 8.4375 26.4375 8.09375 C 26.492188 8.078125 26.539063 8.074219 26.59375 8.0625 C 26.734375 8.027344 26.863281 7.996094 27 7.96875 C 27.070313 7.953125 27.148438 7.953125 27.21875 7.9375 C 27.394531 7.902344 27.582031 7.867188 27.75 7.84375 C 27.8125 7.835938 27.84375 7.820313 27.90625 7.8125 C 28.078125 7.789063 28.273438 7.761719 28.4375 7.75 Z M 28.40625 9.875 C 28.324219 9.878906 28.238281 9.902344 28.15625 9.90625 C 28.144531 9.90625 28.136719 9.90625 28.125 9.90625 C 28.050781 9.910156 27.984375 9.898438 27.90625 9.90625 C 27.894531 9.90625 27.886719 9.90625 27.875 9.90625 C 27.796875 9.914063 27.703125 9.929688 27.625 9.9375 C 27.617188 9.9375 27.601563 9.9375 27.59375 9.9375 C 27.066406 9.996094 26.570313 10.105469 26.21875 10.21875 C 26.164063 10.238281 26.109375 10.261719 26.0625 10.28125 C 26.019531 10.300781 25.972656 10.292969 25.9375 10.3125 L 25.90625 10.34375 C 25.871094 10.363281 25.835938 10.355469 25.8125 10.375 C 25.789063 10.394531 25.761719 10.417969 25.75 10.4375 C 25.730469 10.46875 25.742188 10.511719 25.75 10.53125 C 25.769531 10.554688 25.828125 10.566406 25.90625 10.5625 C 25.984375 10.558594 26.082031 10.5625 26.21875 10.53125 C 26.300781 10.511719 26.398438 10.476563 26.5 10.46875 C 26.601563 10.460938 26.726563 10.46875 26.84375 10.46875 C 27.546875 10.46875 28.433594 10.613281 28.75 10.8125 C 29.148438 11.0625 28.738281 11.597656 28 11.8125 C 27.871094 11.847656 27.773438 11.902344 27.6875 11.9375 C 27.503906 12.015625 27.421875 12.089844 27.4375 12.15625 C 27.457031 12.25 27.691406 12.339844 28.125 12.375 C 29.191406 12.464844 30.234375 12.246094 30.875 11.90625 C 30.890625 11.898438 30.890625 11.882813 30.90625 11.875 C 31.308594 11.648438 31.554688 11.359375 31.53125 11.0625 C 31.527344 11.011719 31.519531 10.988281 31.5 10.9375 C 31.308594 10.441406 30.320313 10.015625 29.125 9.90625 C 28.910156 9.886719 28.664063 9.867188 28.40625 9.875 Z M 17.5625 11.75 C 17.527344 11.753906 17.472656 11.769531 17.4375 11.78125 C 17.421875 11.785156 17.421875 11.773438 17.40625 11.78125 C 17.382813 11.792969 17.367188 11.828125 17.34375 11.84375 C 17.328125 11.851563 17.296875 11.832031 17.28125 11.84375 C 17.246094 11.867188 17.21875 11.90625 17.1875 11.9375 C 17.175781 11.949219 17.171875 11.960938 17.15625 11.96875 C 17.132813 11.996094 17.113281 12.03125 17.09375 12.0625 C 17.082031 12.078125 17.074219 12.078125 17.0625 12.09375 C 17.039063 12.128906 17.019531 12.175781 17 12.21875 C 16.996094 12.226563 17.003906 12.242188 17 12.25 C 16.976563 12.304688 16.953125 12.34375 16.9375 12.40625 C 16.933594 12.414063 16.910156 12.429688 16.90625 12.4375 C 16.890625 12.492188 16.882813 12.5625 16.875 12.625 C 16.875 12.636719 16.875 12.644531 16.875 12.65625 C 16.867188 12.726563 16.875 12.796875 16.875 12.875 C 16.875 13.011719 16.90625 13.164063 16.96875 13.3125 C 17.09375 13.605469 17.355469 13.90625 17.8125 14.375 C 18.46875 15.042969 18.875 15.332031 19.1875 15.3125 C 19.339844 15.300781 19.464844 15.214844 19.59375 15.0625 C 19.925781 14.664063 20.808594 14.417969 22.625 14.21875 C 23.886719 14.078125 24.40625 13.980469 24.5 13.71875 C 24.53125 13.632813 24.515625 13.53125 24.46875 13.40625 C 24.332031 13.046875 23.800781 12.824219 22.90625 12.75 C 22.421875 12.710938 21.816406 12.703125 21.125 12.75 C 19.238281 12.875 18.9375 12.792969 18.09375 11.96875 C 18.050781 11.925781 18.011719 11.90625 17.96875 11.875 C 17.929688 11.851563 17.882813 11.828125 17.84375 11.8125 C 17.835938 11.808594 17.820313 11.785156 17.8125 11.78125 C 17.78125 11.769531 17.75 11.757813 17.71875 11.75 C 17.707031 11.746094 17.699219 11.75 17.6875 11.75 C 17.648438 11.742188 17.601563 11.746094 17.5625 11.75 Z M 30.3125 37.71875 C 30.203125 37.699219 30.046875 37.804688 29.8125 38.0625 C 29.410156 38.507813 28.859375 38.539063 28.1875 38.15625 C 27.5625 37.796875 26.578125 37.800781 26.28125 38.15625 C 25.941406 38.5625 26.191406 39.03125 26.75 39.03125 C 27.015625 39.03125 27.5 39.195313 27.84375 39.40625 C 28.1875 39.617188 28.695313 39.78125 28.9375 39.78125 C 29.535156 39.78125 30.5 38.804688 30.5 38.1875 C 30.5 37.890625 30.421875 37.738281 30.3125 37.71875 Z " fill="#2b3432"/></g></svg>
